<mxfile host="app.diagrams.net" modified="2021-11-18T23:03:28.987Z" agent="5.0 (Windows NT 10.0; Win64; x64) AppleWebKit/537.36 (KHTML, like Gecko) Chrome/96.0.4664.45 Safari/537.36" etag="Cu8Bk5o4I4z7l4kKPuKw" version="15.5.0" type="github">
  <diagram id="rU4xOlaRxYFkicxxYE-a" name="Page-1">
    <mxGraphModel dx="1363" dy="698" grid="1" gridSize="10" guides="1" tooltips="1" connect="1" arrows="1" fold="1" page="1" pageScale="1" pageWidth="827" pageHeight="1169" math="0" shadow="0">
      <root>
        <mxCell id="0" />
        <mxCell id="1" parent="0" />
        <mxCell id="i07ZfwPI9UUrYVMfTWna-1" value="" style="ellipse;html=1;shape=endState;fillColor=#000000;strokeColor=#ff0000;" vertex="1" parent="1">
          <mxGeometry x="412" y="530" width="30" height="30" as="geometry" />
        </mxCell>
        <mxCell id="i07ZfwPI9UUrYVMfTWna-2" value="" style="ellipse;html=1;shape=startState;fillColor=#000000;strokeColor=#ff0000;" vertex="1" parent="1">
          <mxGeometry x="399" y="80" width="30" height="30" as="geometry" />
        </mxCell>
        <mxCell id="i07ZfwPI9UUrYVMfTWna-3" value="" style="edgeStyle=orthogonalEdgeStyle;html=1;verticalAlign=bottom;endArrow=open;endSize=8;strokeColor=#ff0000;rounded=0;" edge="1" source="i07ZfwPI9UUrYVMfTWna-2" parent="1">
          <mxGeometry relative="1" as="geometry">
            <mxPoint x="414" y="180" as="targetPoint" />
          </mxGeometry>
        </mxCell>
        <mxCell id="i07ZfwPI9UUrYVMfTWna-20" style="edgeStyle=orthogonalEdgeStyle;rounded=0;orthogonalLoop=1;jettySize=auto;html=1;entryX=0.386;entryY=-0.021;entryDx=0;entryDy=0;entryPerimeter=0;" edge="1" parent="1" source="i07ZfwPI9UUrYVMfTWna-4" target="i07ZfwPI9UUrYVMfTWna-16">
          <mxGeometry relative="1" as="geometry" />
        </mxCell>
        <mxCell id="i07ZfwPI9UUrYVMfTWna-4" value="Проєктування&lt;br&gt;web-ресурсу" style="html=1;" vertex="1" parent="1">
          <mxGeometry x="359" y="180" width="110" height="50" as="geometry" />
        </mxCell>
        <mxCell id="i07ZfwPI9UUrYVMfTWna-11" style="edgeStyle=orthogonalEdgeStyle;rounded=0;orthogonalLoop=1;jettySize=auto;html=1;entryX=0;entryY=0.5;entryDx=0;entryDy=0;" edge="1" parent="1" source="i07ZfwPI9UUrYVMfTWna-7" target="i07ZfwPI9UUrYVMfTWna-4">
          <mxGeometry relative="1" as="geometry">
            <Array as="points">
              <mxPoint x="340" y="205" />
              <mxPoint x="340" y="205" />
            </Array>
          </mxGeometry>
        </mxCell>
        <mxCell id="i07ZfwPI9UUrYVMfTWna-7" value="" style="rounded=1;arcSize=10;whiteSpace=wrap;html=1;align=center;" vertex="1" parent="1">
          <mxGeometry x="60" y="130" width="260" height="410" as="geometry" />
        </mxCell>
        <mxCell id="i07ZfwPI9UUrYVMfTWna-8" value="SEO-оптимізація" style="text;strokeColor=none;fillColor=none;spacingLeft=4;spacingRight=4;overflow=hidden;rotatable=0;points=[[0,0.5],[1,0.5]];portConstraint=eastwest;fontSize=12;" vertex="1" parent="1">
          <mxGeometry x="70" y="130" width="110" height="20" as="geometry" />
        </mxCell>
        <mxCell id="i07ZfwPI9UUrYVMfTWna-28" style="edgeStyle=orthogonalEdgeStyle;rounded=0;orthogonalLoop=1;jettySize=auto;html=1;" edge="1" parent="1" source="i07ZfwPI9UUrYVMfTWna-9" target="i07ZfwPI9UUrYVMfTWna-12">
          <mxGeometry relative="1" as="geometry" />
        </mxCell>
        <mxCell id="i07ZfwPI9UUrYVMfTWna-9" value="Оптимізація завантаження" style="rounded=1;arcSize=10;whiteSpace=wrap;html=1;align=center;" vertex="1" parent="1">
          <mxGeometry x="90" y="160" width="200" height="40" as="geometry" />
        </mxCell>
        <mxCell id="i07ZfwPI9UUrYVMfTWna-29" style="edgeStyle=orthogonalEdgeStyle;rounded=0;orthogonalLoop=1;jettySize=auto;html=1;entryX=0;entryY=0.5;entryDx=0;entryDy=0;" edge="1" parent="1" source="i07ZfwPI9UUrYVMfTWna-12" target="i07ZfwPI9UUrYVMfTWna-14">
          <mxGeometry relative="1" as="geometry" />
        </mxCell>
        <mxCell id="i07ZfwPI9UUrYVMfTWna-12" value="Мініфікація файлів та зображень" style="rounded=1;arcSize=10;whiteSpace=wrap;html=1;align=center;" vertex="1" parent="1">
          <mxGeometry x="90" y="220" width="200" height="40" as="geometry" />
        </mxCell>
        <mxCell id="i07ZfwPI9UUrYVMfTWna-13" value="Створення карти web-ресурсу&amp;nbsp;" style="rounded=1;arcSize=10;whiteSpace=wrap;html=1;align=center;" vertex="1" parent="1">
          <mxGeometry x="70" y="270" width="100" height="50" as="geometry" />
        </mxCell>
        <mxCell id="i07ZfwPI9UUrYVMfTWna-14" value="Створення файлу robots.txt&amp;nbsp;" style="rounded=1;arcSize=10;whiteSpace=wrap;html=1;align=center;" vertex="1" parent="1">
          <mxGeometry x="210" y="270" width="100" height="50" as="geometry" />
        </mxCell>
        <mxCell id="i07ZfwPI9UUrYVMfTWna-44" style="edgeStyle=orthogonalEdgeStyle;rounded=0;orthogonalLoop=1;jettySize=auto;html=1;startArrow=none;startFill=0;endArrow=block;endFill=1;" edge="1" parent="1" source="i07ZfwPI9UUrYVMfTWna-16">
          <mxGeometry relative="1" as="geometry">
            <mxPoint x="435" y="420" as="targetPoint" />
          </mxGeometry>
        </mxCell>
        <mxCell id="i07ZfwPI9UUrYVMfTWna-16" value="" style="html=1;dashed=1;" vertex="1" parent="1">
          <mxGeometry x="340" y="260" width="190" height="120" as="geometry" />
        </mxCell>
        <mxCell id="i07ZfwPI9UUrYVMfTWna-17" value="Технічна оптимізація" style="rounded=1;arcSize=10;whiteSpace=wrap;html=1;align=center;" vertex="1" parent="1">
          <mxGeometry x="360" y="275" width="150" height="40" as="geometry" />
        </mxCell>
        <mxCell id="i07ZfwPI9UUrYVMfTWna-18" value="Методи зовнішньої оптимізації" style="rounded=1;arcSize=10;whiteSpace=wrap;html=1;align=center;" vertex="1" parent="1">
          <mxGeometry x="359" y="330" width="150" height="40" as="geometry" />
        </mxCell>
        <mxCell id="i07ZfwPI9UUrYVMfTWna-33" value="" style="edgeStyle=orthogonalEdgeStyle;rounded=0;orthogonalLoop=1;jettySize=auto;html=1;startArrow=block;startFill=1;" edge="1" parent="1" source="i07ZfwPI9UUrYVMfTWna-21">
          <mxGeometry relative="1" as="geometry">
            <mxPoint x="210" y="315" as="targetPoint" />
          </mxGeometry>
        </mxCell>
        <mxCell id="i07ZfwPI9UUrYVMfTWna-21" value="Аналіз URL&amp;nbsp;" style="rounded=1;arcSize=10;whiteSpace=wrap;html=1;align=center;" vertex="1" parent="1">
          <mxGeometry x="92" y="335" width="200" height="25" as="geometry" />
        </mxCell>
        <mxCell id="i07ZfwPI9UUrYVMfTWna-37" style="edgeStyle=orthogonalEdgeStyle;rounded=0;orthogonalLoop=1;jettySize=auto;html=1;entryX=1;entryY=0.5;entryDx=0;entryDy=0;startArrow=block;startFill=1;" edge="1" parent="1" source="i07ZfwPI9UUrYVMfTWna-22" target="i07ZfwPI9UUrYVMfTWna-21">
          <mxGeometry relative="1" as="geometry">
            <Array as="points">
              <mxPoint x="312" y="380" />
              <mxPoint x="312" y="348" />
            </Array>
          </mxGeometry>
        </mxCell>
        <mxCell id="i07ZfwPI9UUrYVMfTWna-22" value="Дослідження ключових слів" style="rounded=1;arcSize=10;whiteSpace=wrap;html=1;align=center;" vertex="1" parent="1">
          <mxGeometry x="90" y="380" width="200" height="20" as="geometry" />
        </mxCell>
        <mxCell id="i07ZfwPI9UUrYVMfTWna-38" value="" style="edgeStyle=orthogonalEdgeStyle;rounded=0;orthogonalLoop=1;jettySize=auto;html=1;startArrow=block;startFill=1;exitX=0.5;exitY=0;exitDx=0;exitDy=0;" edge="1" parent="1" source="i07ZfwPI9UUrYVMfTWna-23">
          <mxGeometry relative="1" as="geometry">
            <mxPoint x="193" y="425" as="sourcePoint" />
            <mxPoint x="191" y="400" as="targetPoint" />
            <Array as="points">
              <mxPoint x="192" y="420" />
              <mxPoint x="191" y="420" />
            </Array>
          </mxGeometry>
        </mxCell>
        <mxCell id="i07ZfwPI9UUrYVMfTWna-23" value="Верифікація та індексація через Google" style="rounded=1;arcSize=10;whiteSpace=wrap;html=1;align=center;" vertex="1" parent="1">
          <mxGeometry x="92" y="425" width="200" height="30" as="geometry" />
        </mxCell>
        <mxCell id="i07ZfwPI9UUrYVMfTWna-32" value="" style="edgeStyle=segmentEdgeStyle;endArrow=classic;html=1;rounded=0;" edge="1" parent="1">
          <mxGeometry width="50" height="50" relative="1" as="geometry">
            <mxPoint x="192" y="295" as="sourcePoint" />
            <mxPoint x="170" y="295" as="targetPoint" />
          </mxGeometry>
        </mxCell>
        <mxCell id="i07ZfwPI9UUrYVMfTWna-45" style="edgeStyle=orthogonalEdgeStyle;rounded=0;orthogonalLoop=1;jettySize=auto;html=1;entryX=1;entryY=0.75;entryDx=0;entryDy=0;startArrow=none;startFill=0;endArrow=block;endFill=1;dashed=1;dashPattern=1 1;" edge="1" parent="1" source="i07ZfwPI9UUrYVMfTWna-40" target="i07ZfwPI9UUrYVMfTWna-43">
          <mxGeometry relative="1" as="geometry" />
        </mxCell>
        <mxCell id="i07ZfwPI9UUrYVMfTWna-40" value="Оцінка простоти та зручності роботи web-ресурсу" style="shape=note;size=20;whiteSpace=wrap;html=1;" vertex="1" parent="1">
          <mxGeometry x="550" y="410" width="110" height="100" as="geometry" />
        </mxCell>
        <mxCell id="i07ZfwPI9UUrYVMfTWna-42" style="edgeStyle=orthogonalEdgeStyle;rounded=0;orthogonalLoop=1;jettySize=auto;html=1;entryX=0.5;entryY=1;entryDx=0;entryDy=0;startArrow=block;startFill=1;" edge="1" parent="1" source="i07ZfwPI9UUrYVMfTWna-41" target="i07ZfwPI9UUrYVMfTWna-23">
          <mxGeometry relative="1" as="geometry" />
        </mxCell>
        <mxCell id="i07ZfwPI9UUrYVMfTWna-41" value="Просування у соціальних мережах" style="rounded=1;arcSize=10;whiteSpace=wrap;html=1;align=center;" vertex="1" parent="1">
          <mxGeometry x="92" y="480" width="200" height="30" as="geometry" />
        </mxCell>
        <mxCell id="i07ZfwPI9UUrYVMfTWna-46" style="edgeStyle=orthogonalEdgeStyle;rounded=0;orthogonalLoop=1;jettySize=auto;html=1;entryX=0.5;entryY=0;entryDx=0;entryDy=0;startArrow=none;startFill=0;endArrow=block;endFill=1;" edge="1" parent="1" source="i07ZfwPI9UUrYVMfTWna-43" target="i07ZfwPI9UUrYVMfTWna-1">
          <mxGeometry relative="1" as="geometry" />
        </mxCell>
        <mxCell id="i07ZfwPI9UUrYVMfTWna-43" value="Юзабіліті web-ресурсу" style="rounded=1;arcSize=10;whiteSpace=wrap;html=1;align=center;" vertex="1" parent="1">
          <mxGeometry x="352" y="425" width="150" height="40" as="geometry" />
        </mxCell>
      </root>
    </mxGraphModel>
  </diagram>
</mxfile>
